<svg width="44" height="38" viewBox="0 0 44 38" fill="none" xmlns="http://www.w3.org/2000/svg">
<path d="M26.8166 2.15333C15.0623 2.36312 4.29411 2.37896 3.58304 17.1673C3.38661 21.2365 3.87768 28.6108 6.27018 32.106C6.58185 32.5599 6.83197 33.0481 7.02054 33.5706" stroke="#489782" stroke-width="2"/>
<path d="M36.9837 4.92416C38.618 7.16194 39.4076 9.47757 39.3526 11.871C39.2688 15.6446 38.6913 19.5687 37.6201 23.6431C35.1176 33.155 28.4705 33.5904 20.0908 35.6923" stroke="#489782" stroke-width="2"/>
<path d="M25.8068 19.0871C25.8073 19.1102 25.8011 19.133 25.7889 19.1526C25.7767 19.1722 25.7591 19.1878 25.7382 19.1975C25.7173 19.2072 25.6941 19.2105 25.6714 19.2071C25.6487 19.2036 25.6275 19.1936 25.6104 19.1781L11.8839 6.59458C11.8671 6.57938 11.8462 6.56939 11.8239 6.56581C11.8015 6.56223 11.7786 6.56521 11.7579 6.57439C11.7372 6.58357 11.7195 6.59857 11.707 6.6176C11.6946 6.63662 11.6878 6.65886 11.6875 6.68166V29.8656C11.6875 29.8971 11.6999 29.9273 11.722 29.9496C11.7441 29.9719 11.7741 29.9844 11.8054 29.9844H16.2839C16.3152 29.9844 16.3452 29.9719 16.3673 29.9496C16.3894 29.9273 16.4018 29.8971 16.4018 29.8656V17.3098C16.4021 17.287 16.4088 17.2647 16.4213 17.2457C16.4338 17.2267 16.4515 17.2117 16.4722 17.2025C16.4929 17.1933 16.5158 17.1904 16.5381 17.1939C16.5605 17.1975 16.5813 17.2075 16.5982 17.2227L30.25 29.7785C30.2669 29.7937 30.2877 29.8037 30.3101 29.8073C30.3324 29.8109 30.3553 29.8079 30.376 29.7987C30.3968 29.7895 30.4144 29.7745 30.4269 29.7555C30.4394 29.7365 30.4462 29.7143 30.4464 29.6915V6.55104C30.4464 6.51954 30.434 6.48934 30.4119 6.46707C30.3898 6.4448 30.3598 6.43229 30.3286 6.43229H25.96C25.9287 6.43229 25.8988 6.4448 25.8767 6.46707C25.8546 6.48934 25.8421 6.51954 25.8421 6.55104L25.8068 19.0871Z" stroke="#83B4D5" stroke-width="2"/>
<path d="M26.8162 2.15333C15.062 2.36313 4.29375 2.37896 3.58268 17.1673C3.38625 21.2365 3.87732 28.6108 6.26982 32.106C6.58149 32.5599 6.8316 33.0481 7.02018 33.5706C3.6691 32.11 2.60053 29.5846 2.30982 25.8796C1.9641 21.4885 2.30982 17.1713 3.34696 12.9279C6.47803 0.114793 15.8987 -0.37604 26.8162 2.15333Z" fill="#89C459"/>
<path d="M26.8166 2.15333C29.4121 2.32486 31.5388 2.62965 33.1966 3.06771C34.4145 3.38965 35.6768 4.00847 36.9838 4.92416C38.618 7.16194 39.4077 9.47757 39.3527 11.871C39.2689 15.6447 38.6914 19.5687 37.6202 23.6431C35.1177 33.155 28.4705 33.5904 20.0909 35.6923C18.0637 35.8665 16.1793 35.91 14.4377 35.8229C11.8239 35.6936 9.35149 34.9428 7.02054 33.5706C6.83197 33.0481 6.58185 32.5599 6.27018 32.106C3.87768 28.6108 3.38661 21.2365 3.58304 17.1673C4.29411 2.37896 15.0623 2.36312 26.8166 2.15333ZM25.807 19.0871C25.8075 19.1102 25.8012 19.133 25.789 19.1526C25.7769 19.1722 25.7593 19.1878 25.7384 19.1975C25.7175 19.2072 25.6943 19.2105 25.6716 19.2071C25.6489 19.2036 25.6277 19.1936 25.6105 19.1781L11.8841 6.59458C11.8672 6.57938 11.8464 6.56939 11.824 6.56581C11.8017 6.56223 11.7788 6.56521 11.7581 6.57439C11.7373 6.58358 11.7197 6.59858 11.7072 6.6176C11.6947 6.63662 11.6879 6.65886 11.6877 6.68166V29.8656C11.6877 29.8971 11.7001 29.9273 11.7222 29.9496C11.7443 29.9719 11.7743 29.9844 11.8055 29.9844H16.2841C16.3154 29.9844 16.3453 29.9719 16.3674 29.9496C16.3895 29.9273 16.402 29.8971 16.402 29.8656V17.3098C16.4022 17.287 16.409 17.2647 16.4215 17.2457C16.434 17.2267 16.4516 17.2117 16.4723 17.2025C16.4931 17.1933 16.516 17.1904 16.5383 17.1939C16.5607 17.1975 16.5815 17.2075 16.5984 17.2227L30.2502 29.7785C30.267 29.7937 30.2879 29.8037 30.3103 29.8073C30.3326 29.8109 30.3555 29.8079 30.3762 29.7987C30.3969 29.7895 30.4146 29.7745 30.4271 29.7555C30.4396 29.7365 30.4463 29.7143 30.4466 29.6915V6.55104C30.4466 6.51954 30.4342 6.48934 30.4121 6.46707C30.39 6.4448 30.36 6.43229 30.3288 6.43229H25.9602C25.9289 6.43229 25.8989 6.4448 25.8768 6.46707C25.8547 6.48934 25.8423 6.51954 25.8423 6.55104L25.807 19.0871Z" fill="#0669AB"/>
<path d="M36.9837 4.92417C46.1255 8.73604 39.4626 23.5877 36.2647 28.8206C32.6819 34.6829 26.7183 36.4285 20.0908 35.6923C28.4705 33.5904 35.1176 33.155 37.6201 23.6431C38.6913 19.5687 39.2688 15.6447 39.3526 11.871C39.4076 9.47757 38.618 7.16195 36.9837 4.92417Z" fill="#89C459"/>
<path d="M25.8068 19.0871L25.8421 6.55104C25.8421 6.51955 25.8546 6.48934 25.8767 6.46707C25.8988 6.4448 25.9287 6.43229 25.96 6.43229H30.3286C30.3598 6.43229 30.3898 6.4448 30.4119 6.46707C30.434 6.48934 30.4464 6.51955 30.4464 6.55104V29.6915C30.4462 29.7143 30.4394 29.7365 30.4269 29.7555C30.4144 29.7745 30.3968 29.7895 30.376 29.7987C30.3553 29.8079 30.3324 29.8109 30.3101 29.8073C30.2877 29.8037 30.2669 29.7937 30.25 29.7785L16.5982 17.2227C16.5813 17.2075 16.5605 17.1975 16.5381 17.1939C16.5158 17.1904 16.4929 17.1933 16.4722 17.2025C16.4515 17.2117 16.4338 17.2267 16.4213 17.2457C16.4088 17.2647 16.4021 17.287 16.4018 17.3098V29.8656C16.4018 29.8971 16.3894 29.9273 16.3673 29.9496C16.3452 29.9719 16.3152 29.9844 16.2839 29.9844H11.8054C11.7741 29.9844 11.7441 29.9719 11.722 29.9496C11.6999 29.9273 11.6875 29.8971 11.6875 29.8656V6.68167C11.6878 6.65887 11.6946 6.63662 11.707 6.6176C11.7195 6.59858 11.7372 6.58358 11.7579 6.57439C11.7786 6.56521 11.8015 6.56223 11.8239 6.56581C11.8462 6.56939 11.8671 6.57938 11.8839 6.59458L25.6104 19.1781C25.6275 19.1936 25.6487 19.2036 25.6714 19.2071C25.6941 19.2105 25.7173 19.2072 25.7382 19.1975C25.7591 19.1879 25.7767 19.1722 25.7889 19.1526C25.8011 19.133 25.8073 19.1102 25.8068 19.0871Z" fill="white"/>
</svg>
